<?xml version="1.0" encoding="utf-8"?>
<!-- Generator: Adobe Illustrator 19.2.1, SVG Export Plug-In . SVG Version: 6.00 Build 0)  -->
<svg version="1.1" id="layer" xmlns="http://www.w3.org/2000/svg" xmlns:xlink="http://www.w3.org/1999/xlink" x="0px" y="0px"
	 viewBox="0 0 652 652" style="enable-background:new 0 0 652 652;" xml:space="preserve">
<style type="text/css">
	.st0{fill:#1E64C8;}
</style>
<g>
	<path class="st0" d="M100.5,243.4h13v-84.8h-13V243.4z M74.4,243.4h13v-84.8h-13V243.4z M48.3,243.4h13v-84.8h-13L48.3,243.4z
		 M22.2,243.4h13v-84.8h-13V243.4z M126.7,243.4h13v-84.8h-13V243.4z M152.7,243.4h13v-84.8h-13V243.4z M178.9,243.4h13v-84.8h-13
		V243.4z M8.9,269.5h196.4v-13.1H8.9L8.9,269.5z M191.9,145.6H22.2l-13.1-13H205L191.9,145.6z M-4.2,295.6h222.5v-13H-4.2
		L-4.2,295.6z M218.3,111.4L107.1,72L-4.2,111.4v13.8l111.3-39.4l111.3,39.4V111.4z M389.8,357.3c5.8,0,11.2,1.9,13.7,3.8v-11.8
		c-2.5-1.5-8.6-3.2-14.9-3.2c-17.3,0-26.9,9.8-26.9,24.1c0,11.9,5.1,17.6,13.2,24.6l7.4,6.4c6.1,5.1,9.9,9.1,9.9,16.8
		c0,8.9-5.9,12.5-14.8,12.5c-6.8,0-12.4-1.9-15.6-4.1v12c2.8,1.6,8.8,3.3,16.7,3.3c17.3,0,26.8-9.8,26.9-24.2
		c0-11.9-5.1-17.6-13.2-24.6l-7.4-6.4c-6.2-5.3-10-9-9.9-16.7C375,360.8,380.9,357.3,389.8,357.3 M-4.2,412.3v-64.5h13v65.1
		c0,13.6,4.7,17.6,14.2,17.6c9.5,0,14.2-4,14.2-17.6v-65.1h13.1v64.5c0,21-8.8,29.5-27.3,29.5C4.3,441.8-4.2,433.5-4.2,412.3
		 M67.2,347.8h15.1l29.1,73.6c-1-7.5-1.8-16.3-1.8-24.6v-49H122v92.3H107l-29.4-73.8c1.1,7.6,2.1,16.5,2.1,24.9v49H67.2L67.2,347.8z
		 M140.5,440.1h13v-92.3h-13V440.1z M165.7,347.8h13.7l11.6,48c1.7,7.2,3.8,19.4,5.1,29.1c1.3-9.7,3.4-21.9,5.4-29.1l11.5-48h13.2
		l-23.4,92.3h-13.7L165.7,347.8z M238.3,347.8h43.2v11.1h-30.1v28.2h24.3V398h-24.3v31h30.1v11.1h-43.2V347.8z M309.7,358.9v32.5
		h6.9c10.2,0,17.1-2.2,17.1-16.3c0-14.1-6.8-16.2-17.1-16.2L309.7,358.9z M296.6,347.8h21.3c17.1,0,29.3,6.4,29.3,27.3
		c0,14.6-7.1,21.7-16.1,25l19.6,40h-14.9l-17.3-37.6h-8.8v37.6h-13.1L296.6,347.8 M421.1,440.1h13v-92.3h-13V440.1z M446.6,347.8h53
		v11.1h-20v81.2h-13v-81.2h-19.9L446.6,347.8z M511.5,347.8h43.1v11.1h-30.1v28.2h24.3V398h-24.3v31h30.1v11.1h-43.1V347.8z
		 M569.6,440.1h13v-92.3h-13V440.1z M594.6,347.8h53v11.1h-20v81.2h-13v-81.2h-19.9L594.6,347.8z M-7,524.2
		c0-36.4,9.7-47.8,33.7-47.8c6.8,0,14.1,1.8,17.2,3.7v12.1c-3.4-2-9.9-4.1-16.2-4.1c-15.3,0-21.1,5.7-21.1,36.2
		c0,30.2,4.1,36.5,17.5,36.5c4.1,0,7.5-0.5,10.1-1.3v-30.8H20.4v-11.1h26.7v49.8c-2.7,1.7-13.5,4.7-23,4.7C-0.9,572-7,559-7,524.2
		 M62.6,478h43.2v11.1H75.7v28.3H100v10.9H75.7v31h30.1v11H62.6L62.6,478z M120.9,478h15.1l29.1,73.6c-1-7.5-1.8-16.3-1.8-24.6v-49
		h12.5v92.3h-15.1l-29.4-73.8c1.1,7.5,2.1,16.5,2.1,24.8v49h-12.5L120.9,478z M187.7,478h53v11.1h-20v81.2h-13.1v-81.2h-19.9
		L187.7,478z"/>
</g>
</svg>
